<svg width="369" height="100" viewBox="0 0 369 100" fill="none" xmlns="http://www.w3.org/2000/svg">
<path fill-rule="evenodd" clip-rule="evenodd" d="M50.2002 0C43.6341 -5.47174e-07 37.1323 1.29329 31.066 3.80602C24.9997 6.31876 19.4878 10.0017 14.8449 14.6447C10.2019 19.2876 6.51895 24.7995 4.00622 30.8658C1.49348 36.9321 0.200195 43.4339 0.200195 50C0.200195 56.5661 1.49348 63.0679 4.00622 69.1342C6.51895 75.2004 10.2019 80.7124 14.8449 85.3553C19.4878 89.9983 24.9997 93.6812 31.066 96.194C37.1323 98.7067 43.6341 100 50.2002 100C56.7663 100 63.2681 98.7067 69.3344 96.194C75.4006 93.6812 80.9126 89.9983 85.5555 85.3553C90.1985 80.7124 93.8814 75.2004 96.3942 69.1342C98.9069 63.0679 100.2 56.5661 100.2 50C100.2 43.4339 98.9069 36.9321 96.3942 30.8658C93.8814 24.7995 90.1985 19.2876 85.5555 14.6447C80.9126 10.0017 75.4006 6.31876 69.3344 3.80602C63.2681 1.29329 56.7663 -5.47174e-07 50.2002 0ZM50.5379 18.7256C51.1129 18.7256 51.5796 19.1923 51.5796 19.7673V21.0002C52.79 21.4314 53.6629 22.5777 53.6629 23.9339V25.5046C57.8733 26.8421 60.9546 30.7443 60.9546 35.3923C60.9546 36.4131 60.7596 37.3785 60.4867 38.3097L63.9412 46.6471C64.0475 46.9034 64.0475 47.1884 63.9412 47.4447C63.835 47.7009 63.6319 47.904 63.3756 48.0103L62.4113 48.4049L64.0023 52.238C67.1481 50.2109 69.8595 47.4949 71.8595 44.222C72.1616 43.7324 72.8042 43.5761 73.2959 43.8761C73.7876 44.1782 73.9418 44.8188 73.6418 45.3084C71.4084 48.9605 68.3597 51.9928 64.8201 54.2074L73.182 74.3896C73.4007 74.9209 73.1476 75.534 72.6164 75.7528L69.7314 76.9491L70.9237 79.834C71.1424 80.3652 70.8934 80.9783 70.3621 81.1971C70.233 81.2513 70.0967 81.2744 69.9634 81.2744C69.555 81.2744 69.1657 81.0315 68.999 80.6315L67.404 76.7822L59.1642 56.8888C57.3913 57.4909 55.5482 57.8786 53.667 58.0973V59.3506C53.667 61.0735 52.2649 62.4756 50.542 62.4756C48.8191 62.4756 47.417 61.0735 47.417 59.3506V58.0973C45.5357 57.8786 43.6865 57.4909 41.9157 56.8888L33.6759 76.7822L32.0809 80.6315C31.9142 81.0336 31.5249 81.2744 31.1165 81.2744C30.9832 81.2744 30.8469 81.2493 30.7178 81.193C30.1865 80.9743 29.9354 80.3652 30.1562 79.834L31.3525 76.945L28.4635 75.7487C27.9323 75.5299 27.6833 74.9209 27.902 74.3896L36.2598 54.2074C32.716 51.9949 29.6715 48.9605 27.4382 45.3084C27.1382 44.8168 27.2923 44.1782 27.784 43.8761C28.2757 43.5761 28.9163 43.7324 29.2163 44.222C31.2142 47.4949 33.9297 50.213 37.0776 52.238L38.6645 48.4049L37.7043 48.0103C37.448 47.904 37.2449 47.6988 37.1387 47.4447C37.0324 47.1905 37.0324 46.9034 37.1387 46.6471L40.5892 38.3097C40.3142 37.3785 40.1213 36.4131 40.1213 35.3923C40.1213 30.7443 43.2025 26.8421 47.4129 25.5046V23.9339C47.4129 22.5777 48.2858 21.4314 49.4963 21.0002V19.7673C49.4963 19.1923 49.9629 18.7256 50.5379 18.7256ZM50.5379 22.8923C49.9629 22.8923 49.4963 23.361 49.4963 23.9339V25.0814C49.8442 25.046 50.1817 24.9756 50.5379 24.9756C50.8942 24.9756 51.2317 25.046 51.5796 25.0814V23.9339C51.5796 23.361 51.1129 22.8923 50.5379 22.8923ZM50.5379 27.0589C45.9421 27.0589 42.2046 30.7964 42.2046 35.3923C42.2046 36.3193 42.3914 37.1977 42.6685 38.029C42.6705 38.0311 42.6745 38.0329 42.6766 38.0371C43.0016 39.0059 43.5002 39.8848 44.1252 40.6494C44.1627 40.6952 44.1995 40.7419 44.2391 40.7878C44.8578 41.5107 45.595 42.1215 46.4242 42.5944C46.5033 42.6402 46.587 42.6849 46.6683 42.7287C47.2308 43.0245 47.8274 43.266 48.4587 43.4285C48.4649 43.4285 48.4646 43.4305 48.4709 43.4326C49.1354 43.6035 49.8172 43.7215 50.5339 43.7215C51.2505 43.7215 51.9363 43.6034 52.6009 43.4326C52.6072 43.4326 52.6069 43.4306 52.6131 43.4285C53.2444 43.266 53.841 43.0245 54.4035 42.7287C54.4847 42.6849 54.5685 42.6402 54.6476 42.5944C55.4789 42.1215 56.2139 41.5107 56.8327 40.7878C56.8723 40.7419 56.9091 40.6952 56.9466 40.6494C57.5695 39.8848 58.0681 39.0059 58.3952 38.0371C58.3973 38.0329 58.4012 38.0331 58.4033 38.029C58.6846 37.1956 58.8713 36.3193 58.8713 35.3923C58.8713 30.7964 55.1338 27.0589 50.5379 27.0589ZM50.5379 32.2673C52.2608 32.2673 53.6629 33.6693 53.6629 35.3923C53.6629 37.1152 52.2608 38.5173 50.5379 38.5173C48.815 38.5173 47.4129 37.1152 47.4129 35.3923C47.4129 33.6693 48.815 32.2673 50.5379 32.2673ZM50.5379 34.3506C49.9629 34.3506 49.4963 34.8193 49.4963 35.3923C49.4963 35.9652 49.9629 36.4339 50.5379 36.4339C51.1129 36.4339 51.5796 35.9652 51.5796 35.3923C51.5796 34.8193 51.1129 34.3506 50.5379 34.3506ZM41.7529 40.9383L39.458 46.4844L42.347 47.6807L44.2716 48.4741L45.2319 48.8729L46.8026 45.0887C46.3692 44.92 45.9657 44.7073 45.5615 44.4865C45.4386 44.4177 45.3121 44.356 45.1912 44.283C44.8267 44.0622 44.4829 43.8192 44.1496 43.5588C44.0142 43.4525 43.8821 43.3417 43.7508 43.2292C43.4279 42.95 43.1207 42.6588 42.8353 42.3421C42.7519 42.2484 42.6765 42.1491 42.5952 42.0532C42.2952 41.6949 42.0029 41.3341 41.7529 40.9383ZM59.3188 40.9383C59.0668 41.3341 58.7766 41.697 58.4766 42.0532C58.3953 42.1491 58.3198 42.2484 58.2365 42.3421C57.949 42.6588 57.6439 42.95 57.321 43.2292C57.1918 43.3417 57.0576 43.4525 56.9222 43.5588C56.5889 43.8213 56.2492 44.0622 55.8846 44.283C55.7638 44.356 55.6393 44.4177 55.5143 44.4865C55.1102 44.7094 54.7066 44.922 54.2733 45.0887L55.8398 48.8729L56.8001 48.4741H56.8042L58.7288 47.6807L61.6138 46.4844L59.3188 40.9383ZM48.8289 45.634L46.7578 50.6307C46.5911 51.0328 46.2059 51.2736 45.7975 51.2736C45.6642 51.2736 45.53 51.2505 45.3988 51.1963L44.4344 50.7975L42.7132 54.9561C44.2299 55.4623 45.8088 55.7916 47.4129 55.9937V55.1839C47.4129 53.461 48.815 52.0589 50.5379 52.0589C52.2608 52.0589 53.6629 53.461 53.6629 55.1839V55.9937C55.2671 55.7916 56.846 55.4623 58.3626 54.9561L56.6414 50.7975L55.6771 51.1963C55.5479 51.2505 55.4117 51.2736 55.2783 51.2736C54.87 51.2736 54.4847 51.0307 54.318 50.6307L52.2469 45.634C51.6865 45.7277 51.1233 45.8089 50.5379 45.8089C49.9525 45.8089 49.3873 45.7277 48.8289 45.634ZM40.5892 49.2025L38.8965 53.2796C39.5111 53.6067 40.1368 53.912 40.7764 54.187L42.5098 50L41.5495 49.6012L40.5892 49.2025ZM60.4867 49.2025L59.5264 49.6012L58.5661 50L60.2995 54.187C60.9391 53.912 61.5648 53.6067 62.1794 53.2796L60.4867 49.2025ZM50.5379 54.1423C49.9629 54.1423 49.4963 54.611 49.4963 55.1839V59.3506C49.4963 59.9235 49.9629 60.3923 50.5379 60.3923C51.1129 60.3923 51.5796 59.9235 51.5796 59.3506V55.1839C51.5796 54.611 51.1129 54.1423 50.5379 54.1423ZM38.099 55.2124L30.2214 74.2269L32.1501 75.0244L39.9829 56.1076C39.3412 55.8326 38.7156 55.5353 38.099 55.2124ZM62.9769 55.2124C62.3581 55.5353 61.7325 55.8326 61.0929 56.1076L68.9258 75.0244L70.8545 74.2269L62.9769 55.2124Z" fill="#C03000"/>
<path d="M123.61 24.3262C118.07 24.3262 115.04 27.3562 115.04 32.0562C115.04 36.7562 118.07 39.7862 123.61 39.7862C128.63 39.7862 131.34 37.0762 131.34 34.5662C131.34 34.0462 131.03 33.7262 130.51 33.7262H127.89C127.27 33.7262 126.93 34.0462 126.64 34.5662C126.12 35.5062 125.28 36.3462 123.61 36.3462C121.31 36.3462 119.85 34.8762 119.85 32.0562C119.85 29.2362 121.31 27.7762 123.61 27.7762C125.18 27.7762 125.91 28.5062 126.43 29.3362C126.74 29.8662 127.06 30.1762 127.69 30.1762H130.3C130.82 30.1762 131.13 29.8662 131.13 29.3362C131.13 26.9362 128.52 24.3262 123.61 24.3262Z" fill="black"/>
<path d="M141.58 36.3462C139.28 36.3462 137.82 34.8762 137.82 32.0562C137.82 29.2362 139.28 27.7762 141.58 27.7762C143.88 27.7762 145.35 29.2362 145.35 32.0562C145.35 34.8762 143.88 36.3462 141.58 36.3462ZM141.58 24.3262C136.04 24.3262 133.01 27.3562 133.01 32.0562C133.01 36.7562 136.04 39.7862 141.58 39.7862C147.12 39.7862 150.15 36.7562 150.15 32.0562C150.15 27.3562 147.12 24.3262 141.58 24.3262Z" fill="black"/>
<path d="M159.35 39.7862C164.78 39.7862 166.98 37.5962 166.98 35.2962C166.98 32.3662 163.95 31.7462 163.95 31.7462V31.5362C163.95 31.5362 166.56 30.9062 166.56 28.6062C166.56 26.4162 164.47 24.3262 159.35 24.3262C154.44 24.3262 152.14 26.6262 152.14 28.7162C152.14 29.2362 152.45 29.5462 152.97 29.5462H155.59C156.21 29.5462 156.51 29.2362 156.84 28.7162C157.05 28.3962 157.68 27.7762 159.35 27.7762C161.12 27.7762 161.75 28.3962 161.75 28.9262C161.75 29.5462 161.23 30.0762 160.29 30.0762H157.78C157.36 30.0762 157.05 30.3862 157.05 30.8062V32.8962C157.05 33.3062 157.36 33.6262 157.78 33.6262H160.5C161.54 33.6262 162.17 34.2562 162.17 34.9862C162.17 35.6062 161.44 36.3462 159.35 36.3462C157.36 36.3462 156.63 35.7162 156.32 35.1962C156.05 34.7362 155.69 34.3562 155.06 34.3562H152.45C151.93 34.3562 151.62 34.6662 151.62 35.1962C151.62 37.4862 153.91 39.7862 159.35 39.7862Z" fill="black"/>
<path d="M185.06 35.8161V25.4761C185.06 25.0561 184.74 24.7461 184.32 24.7461H178.26C174.08 24.7461 171.97 26.8361 171.16 30.1761L169.8 35.8161H168.65C168.23 35.8161 167.92 36.1361 167.92 36.5461V38.6361C167.92 39.0561 168.23 39.3761 168.65 39.3761H186.41C186.83 39.3761 187.15 39.0561 187.15 38.6361V36.5461C187.15 36.1361 186.83 35.8161 186.41 35.8161H185.06ZM180.46 35.8161H174.5L175.86 30.1761C176.13 29.0261 176.9 28.2961 178.26 28.2961H180.46V35.8161Z" fill="black"/>
<path d="M200.38 38.6361C200.54 39.0561 200.9 39.3761 201.32 39.3761H204.87C205.29 39.3761 205.58 39.0561 205.39 38.6361L199.54 25.4561C199.35 25.0361 199.02 24.7461 198.6 24.7461H194.31C193.9 24.7461 193.56 25.0561 193.37 25.4761L187.52 38.6361C187.33 39.0561 187.63 39.3761 188.04 39.3761H191.39C191.81 39.3761 192.16 39.0561 192.33 38.6361L193.06 36.7561H199.64L200.38 38.6361ZM196.3 29.1261H196.51L198.18 33.3061H194.52L196.3 29.1261Z" fill="black"/>
<path d="M222.281 25.4761C222.281 25.0561 221.961 24.7461 221.551 24.7461H218.411C217.991 24.7461 217.681 25.0561 217.681 25.4761V30.3861H211.621V25.4761C211.621 25.0561 211.311 24.7461 210.891 24.7461H207.751C207.331 24.7461 207.021 25.0561 207.021 25.4761V38.6361C207.021 39.0561 207.331 39.3761 207.751 39.3761H210.891C211.311 39.3761 211.621 39.0561 211.621 38.6361V33.9361H217.681V38.6361C217.681 39.0561 217.991 39.3761 218.411 39.3761H221.551C221.961 39.3761 222.281 39.0561 222.281 38.6361V25.4761Z" fill="black"/>
<path d="M236.28 31.0161V38.6361C236.28 39.0561 236.59 39.3761 237.01 39.3761H240.15C240.57 39.3761 240.88 39.0561 240.88 38.6361V25.4761C240.88 25.0561 240.57 24.7461 240.15 24.7461H236.59C236.07 24.7461 235.65 25.1561 235.45 25.4761L230.22 33.1061H230.01V25.4761C230.01 25.0561 229.7 24.7461 229.28 24.7461H226.14C225.73 24.7461 225.41 25.0561 225.41 25.4761V38.6361C225.41 39.0561 225.73 39.3761 226.14 39.3761H229.7C230.22 39.3761 230.64 38.9561 230.85 38.6361L236.07 31.0161H236.28Z" fill="black"/>
<path d="M258.23 25.4761C258.23 25.0561 257.91 24.7461 257.49 24.7461H244.75C244.33 24.7461 244.01 25.0561 244.01 25.4761V38.6361C244.01 39.0561 244.33 39.3761 244.75 39.3761H257.49C257.91 39.3761 258.23 39.0561 258.23 38.6361V36.5461C258.23 36.1361 257.91 35.8161 257.49 35.8161H248.61V33.7261H255.2C255.61 33.7261 255.93 33.4161 255.93 32.9961V30.9061C255.93 30.4861 255.61 30.1761 255.2 30.1761H248.61V28.2961H257.49C257.91 28.2961 258.23 27.9861 258.23 27.5661V25.4761Z" fill="black"/>
<path d="M278.31 39.3761C278.94 39.3761 279.34 38.9561 279.46 38.6361L282.26 31.7461H282.47V38.6361C282.47 39.0561 282.78 39.3761 283.2 39.3761H286.34C286.75 39.3761 287.07 39.0561 287.07 38.6361V25.4761C287.07 25.0561 286.75 24.7461 286.34 24.7461H281.95C281.32 24.7461 280.92 25.1561 280.8 25.4761L277.14 34.3561H276.93L273.27 25.4761C273.15 25.1561 272.75 24.7461 272.12 24.7461H267.74C267.32 24.7461 267 25.0561 267 25.4761V38.6361C267 39.0561 267.32 39.3761 267.74 39.3761H270.87C271.29 39.3761 271.6 39.0561 271.6 38.6361V31.7461H271.81L274.63 38.6361C274.76 38.9561 275.16 39.3761 275.78 39.3761H278.31Z" fill="black"/>
<path d="M301.55 38.6361C301.72 39.0561 302.07 39.3761 302.49 39.3761H306.05C306.46 39.3761 306.76 39.0561 306.57 38.6361L300.72 25.4561C300.53 25.0361 300.19 24.7461 299.78 24.7461H295.49C295.07 24.7461 294.74 25.0561 294.55 25.4761L288.7 38.6361C288.51 39.0561 288.8 39.3761 289.22 39.3761H292.57C292.98 39.3761 293.34 39.0561 293.51 38.6361L294.24 36.7561H300.82L301.55 38.6361ZM297.48 29.1261H297.69L299.36 33.3061H295.7L297.48 29.1261Z" fill="black"/>
<path d="M330.35 25.4761C330.35 25.0561 330.04 24.7461 329.62 24.7461H326.49C326.07 24.7461 325.75 25.0561 325.75 25.4761V35.8161H321.57V25.4761C321.57 25.0561 321.26 24.7461 320.84 24.7461H317.71C317.29 24.7461 316.98 25.0561 316.98 25.4761V35.8161H312.8V25.4761C312.8 25.0561 312.48 24.7461 312.06 24.7461H308.93C308.51 24.7461 308.2 25.0561 308.2 25.4761V38.6361C308.2 39.0561 308.51 39.3761 308.93 39.3761H329.62C330.04 39.3761 330.35 39.0561 330.35 38.6361V25.4761Z" fill="black"/>
<path d="M344.36 31.0161V38.6361C344.36 39.0561 344.67 39.3761 345.09 39.3761H348.22C348.64 39.3761 348.95 39.0561 348.95 38.6361V25.4761C348.95 25.0561 348.64 24.7461 348.22 24.7461H344.67C344.15 24.7461 343.73 25.1561 343.52 25.4761L338.29 33.1061H338.09V25.4761C338.09 25.0561 337.77 24.7461 337.35 24.7461H334.22C333.8 24.7461 333.49 25.0561 333.49 25.4761V38.6361C333.49 39.0561 333.8 39.3761 334.22 39.3761H337.77C338.29 39.3761 338.71 38.9561 338.92 38.6361L344.15 31.0161H344.36Z" fill="black"/>
<path d="M367.35 25.4761C367.35 25.0561 367.03 24.7461 366.61 24.7461H363.48C363.06 24.7461 362.75 25.0561 362.75 25.4761V30.3861H356.69V25.4761C356.69 25.0561 356.37 24.7461 355.95 24.7461H352.82C352.4 24.7461 352.09 25.0561 352.09 25.4761V38.6361C352.09 39.0561 352.4 39.3761 352.82 39.3761H355.95C356.37 39.3761 356.69 39.0561 356.69 38.6361V33.9361H362.75V38.6361C362.75 39.0561 363.06 39.3761 363.48 39.3761H366.61C367.03 39.3761 367.35 39.0561 367.35 38.6361V25.4761Z" fill="black"/>
<path d="M124.948 70.0161C124.948 69.6061 124.808 69.4261 124.428 69.4261H122.738C122.348 69.4261 122.318 69.7061 122.268 70.0561C122.128 70.8861 121.388 71.2261 120.448 71.2261C119.308 71.2261 118.528 70.6061 118.528 69.4961V65.8961C118.528 64.8061 119.308 64.1661 120.448 64.1661C121.388 64.1661 121.868 64.4261 122.228 64.9961C122.368 65.2061 122.388 65.5361 122.748 65.5361H124.408C124.808 65.5361 124.948 65.4461 124.948 65.0361C124.718 62.8361 122.598 61.7461 120.448 61.7461C118.388 61.7461 115.818 62.9461 115.818 65.6561V69.7361C115.818 72.4561 118.388 73.6461 120.448 73.6461C122.598 73.6461 124.948 72.2461 124.948 70.0161Z" fill="black"/>
<path d="M143.358 72.8364L140.918 69.2864C141.988 68.9264 143.318 67.6664 143.318 65.8464C143.318 64.7364 142.958 63.7564 142.318 63.1364C141.588 62.4064 140.758 62.0264 138.878 62.0264H134.518C134.118 62.0264 134.028 62.2164 134.028 62.5264V72.8864C134.028 73.2864 134.208 73.3864 134.518 73.3864H136.228C136.538 73.3864 136.728 73.2864 136.728 72.8864V64.4464H139.028C139.928 64.4464 140.618 65.0164 140.618 65.9164C140.618 66.7264 139.828 67.3164 138.978 67.3164H138.628C138.238 67.3164 138.128 67.5064 138.128 67.8164V69.2064C138.128 69.6864 138.168 69.8764 138.318 70.0864L140.188 72.8764C140.428 73.2364 140.638 73.3864 141.058 73.3864H143.098C143.428 73.3864 143.508 73.0764 143.358 72.8364Z" fill="black"/>
<path d="M160.729 70.9659H155.209V68.6859H159.839C160.239 68.6859 160.349 68.4959 160.349 68.1859V66.8359C160.349 66.5259 160.239 66.3359 159.839 66.3359H155.209V64.4459H160.429C160.829 64.4459 160.929 64.2559 160.929 63.9459V62.5059C160.929 62.1959 160.829 62.0059 160.429 62.0059H152.979C152.579 62.0059 152.469 62.1959 152.469 62.5059V72.8859C152.469 73.1959 152.579 73.3859 152.979 73.3859H160.729C161.119 73.3859 161.229 73.1959 161.229 72.8859V71.4659C161.229 71.1559 161.119 70.9659 160.729 70.9659Z" fill="black"/>
<path d="M180.029 72.9059L176.209 62.5459C176.049 62.1759 175.879 62.0059 175.499 62.0059H173.839C173.459 62.0059 173.269 62.1759 173.129 62.5459L169.289 72.9059C169.199 73.1159 169.199 73.3859 169.579 73.3859H171.399C171.779 73.3859 171.919 73.2859 172.059 72.8759L172.539 71.5059H176.779L177.269 72.8759C177.399 73.2859 177.539 73.3859 177.919 73.3859H179.739C180.119 73.3859 180.119 73.1159 180.029 72.9059ZM173.369 69.0859L174.669 65.2559L175.969 69.0859H173.369Z" fill="black"/>
<path d="M195.408 62.0059H187.388C186.988 62.0059 186.878 62.1959 186.878 62.5059V63.9459C186.878 64.2559 186.988 64.4459 187.388 64.4459H190.048V72.8859C190.048 73.2859 190.238 73.3859 190.548 73.3859H192.258C192.578 73.3859 192.768 73.2859 192.768 72.8859V64.4459H195.408C195.808 64.4459 195.908 64.2559 195.908 63.9459V62.5059C195.908 62.1959 195.808 62.0059 195.408 62.0059Z" fill="black"/>
<path d="M212.819 70.9659H207.299V68.6859H211.929C212.329 68.6859 212.439 68.4959 212.439 68.1859V66.8359C212.439 66.5259 212.329 66.3359 211.929 66.3359H207.299V64.4459H212.519C212.919 64.4459 213.019 64.2559 213.019 63.9459V62.5059C213.019 62.1959 212.919 62.0059 212.519 62.0059H205.069C204.669 62.0059 204.559 62.1959 204.559 62.5059V72.8859C204.559 73.1959 204.669 73.3859 205.069 73.3859H212.819C213.209 73.3859 213.319 73.1959 213.319 72.8859V71.4659C213.319 71.1559 213.209 70.9659 212.819 70.9659Z" fill="black"/>
<path d="M244.148 61.9863H242.488C241.918 61.9863 241.828 62.3663 241.708 62.5763L239.318 66.8363L236.948 62.5763C236.808 62.3663 236.738 61.9863 236.148 61.9863H234.438C234.038 61.9863 233.938 62.1763 233.938 62.4963V72.8863C233.938 73.2863 234.128 73.3863 234.438 73.3863H236.148C236.468 73.3863 236.658 73.2863 236.658 72.8863V67.0263L238.398 70.0563C238.488 70.1863 238.628 70.4163 238.888 70.4163H239.748C240.008 70.4163 240.168 70.1863 240.248 70.0563L241.978 67.0263V72.8863C241.978 73.2863 242.168 73.3863 242.488 73.3863H244.148C244.458 73.3863 244.648 73.2863 244.648 72.8863V62.4963C244.648 62.1763 244.538 61.9863 244.148 61.9863Z" fill="black"/>
<path d="M263.918 72.9059L260.098 62.5459C259.938 62.1759 259.768 62.0059 259.388 62.0059H257.728C257.348 62.0059 257.158 62.1759 257.018 62.5459L253.178 72.9059C253.088 73.1159 253.088 73.3859 253.468 73.3859H255.288C255.668 73.3859 255.808 73.2859 255.948 72.8759L256.428 71.5059H260.668L261.148 72.8759C261.288 73.2859 261.428 73.3859 261.808 73.3859H263.628C264.008 73.3859 264.008 73.1159 263.918 72.9059ZM257.258 69.0859L258.558 65.2559L259.858 69.0859H257.258Z" fill="black"/>
<path d="M281.149 70.0161C281.149 69.6061 281.009 69.4261 280.629 69.4261H278.939C278.559 69.4261 278.519 69.7061 278.469 70.0561C278.329 70.8861 277.589 71.2261 276.649 71.2261C275.509 71.2261 274.729 70.6061 274.729 69.4961V65.8961C274.729 64.8061 275.509 64.1661 276.649 64.1661C277.589 64.1661 278.069 64.4261 278.439 64.9961C278.569 65.2061 278.589 65.5361 278.949 65.5361H280.619C281.009 65.5361 281.149 65.4461 281.149 65.0361C280.929 62.8361 278.799 61.7461 276.649 61.7461C274.589 61.7461 272.019 62.9461 272.019 65.6561V69.7361C272.019 72.4561 274.589 73.6461 276.649 73.6461C278.799 73.6461 281.149 72.2461 281.149 70.0161Z" fill="black"/>
<path d="M299.019 62.0059H297.309C296.999 62.0059 296.809 62.1159 296.809 62.5059V66.4159H292.949V62.5059C292.949 62.1159 292.779 62.0059 292.449 62.0059H290.739C290.419 62.0059 290.229 62.1159 290.229 62.5059V72.8859C290.229 73.2859 290.419 73.3859 290.739 73.3859H292.449C292.779 73.3859 292.949 73.2859 292.949 72.8859V68.9759H296.809V72.8859C296.809 73.2859 296.999 73.3859 297.309 73.3859H299.019C299.329 73.3859 299.519 73.2859 299.519 72.8859V62.5059C299.519 62.1159 299.329 62.0059 299.019 62.0059Z" fill="black"/>
<path d="M313.949 71.0159H312.859V64.4159H313.899C314.299 64.4159 314.399 64.2259 314.399 63.9059V62.5059C314.399 62.1959 314.299 62.0059 313.899 62.0059H309.089C308.689 62.0059 308.589 62.1959 308.589 62.5059V63.9059C308.589 64.2259 308.689 64.4159 309.089 64.4159H310.149V71.0159H309.059C308.659 71.0159 308.549 71.2059 308.549 71.5259V72.8859C308.549 73.1959 308.659 73.3859 309.059 73.3859H313.949C314.349 73.3859 314.449 73.1959 314.449 72.8859V71.5259C314.449 71.2059 314.349 71.0159 313.949 71.0159Z" fill="black"/>
<path d="M332.338 62.0059H330.678C330.368 62.0059 330.178 62.1159 330.178 62.5059V68.5159L326.508 62.5959C326.288 62.2459 326.168 62.0059 325.728 62.0059H324.108C323.708 62.0059 323.608 62.1959 323.608 62.5059V72.8859C323.608 73.2859 323.798 73.3859 324.108 73.3859H325.818C326.128 73.3859 326.318 73.2859 326.318 72.8859V66.8659L329.988 72.8059C330.208 73.1459 330.338 73.3859 330.768 73.3859H332.338C332.738 73.3859 332.838 73.1959 332.838 72.8859V62.5059C332.838 62.1159 332.648 62.0059 332.338 62.0059Z" fill="black"/>
<path d="M350.578 70.9659H345.058V68.6859H349.688C350.088 68.6859 350.198 68.4959 350.198 68.1859V66.8359C350.198 66.5259 350.088 66.3359 349.688 66.3359H345.058V64.4459H350.278C350.678 64.4459 350.778 64.2559 350.778 63.9459V62.5059C350.778 62.1959 350.678 62.0059 350.278 62.0059H342.828C342.428 62.0059 342.318 62.1959 342.318 62.5059V72.8859C342.318 73.1959 342.428 73.3859 342.828 73.3859H350.578C350.968 73.3859 351.078 73.1959 351.078 72.8859V71.4659C351.078 71.1559 350.968 70.9659 350.578 70.9659Z" fill="black"/>
<path d="M365.448 66.7861C364.758 66.5061 362.218 66.1261 362.218 65.0661C362.218 64.2861 363.168 64.0661 363.738 64.0661C364.258 64.0661 364.878 64.2261 365.208 64.5361C365.418 64.7361 365.508 64.8761 365.578 65.0561C365.658 65.2761 365.708 65.5161 366.038 65.5161H367.738C368.138 65.5161 368.238 65.4461 368.238 65.0361C368.238 62.7561 365.838 61.7461 363.638 61.7461C361.478 61.8361 359.428 62.9461 359.428 65.1861C359.428 67.3861 361.038 68.0761 362.788 68.6361C364.258 69.0961 365.798 69.1161 365.798 70.0861C365.798 71.0561 365.038 71.2661 364.108 71.2661C363.458 71.2661 362.758 71.1061 362.408 70.6961C362.178 70.4361 362.098 70.2061 362.078 69.9861C362.048 69.5461 361.858 69.4961 361.458 69.4961H359.778C359.378 69.4961 359.278 69.5861 359.278 69.9861C359.278 72.4061 361.768 73.6461 363.928 73.6461C366.598 73.6461 368.528 72.4761 368.528 70.0161C368.528 67.6661 366.698 67.1661 365.448 66.7861Z" fill="black"/>
<path d="M114.4 50H363.4" stroke="black" stroke-width="4.73392"/>
</svg>
