<svg width="30" height="30" viewBox="0 0 30 30" fill="none" xmlns="http://www.w3.org/2000/svg">
<path d="M21.225 17.8892C20.819 17.6512 20.32 17.6562 19.916 17.8962L17.87 19.1152C17.412 19.3882 16.84 19.3562 16.42 19.0282C15.694 18.4612 14.525 17.5072 13.508 16.4902C12.491 15.4732 11.537 14.3042 10.97 13.5782C10.642 13.1582 10.61 12.5862 10.883 12.1282L12.102 10.0822C12.343 9.67822 12.345 9.17522 12.107 8.76922L9.10501 3.64122C8.81401 3.14522 8.23601 2.90122 7.67701 3.03822C7.13401 3.17022 6.42901 3.49222 5.69001 4.23222C3.37601 6.54622 2.14701 10.4492 10.849 19.1512C19.551 27.8532 23.453 26.6252 25.768 24.3102C26.509 23.5692 26.83 22.8632 26.963 22.3192C27.098 21.7612 26.858 21.1872 26.363 20.8972C25.127 20.1742 22.461 18.6132 21.225 17.8892Z" fill="#C80C2F"/>
</svg>
